Coordinates
nRows=119
nColumns=2
inDegrees=yes
endheader
time	ankle_angle_r	
3.14919	 18.859863	
3.22077	 18.814087	
3.29234	 18.876932	
3.36391	 18.895071	
3.43548	 18.850065	
3.50706	 18.870016	
3.57863	 18.946102	
3.6502	 19.048492	
3.72177	 18.926630	
3.79335	 19.021770	
3.86492	 19.036821	
3.93649	 19.088745	
4.00806	 19.021147	
4.07964	 19.020939	
4.15121	 19.073486	
4.22278	 19.088745	
4.29435	 19.057758	
4.36593	 19.050625	
4.4375	 19.073486	
4.50907	 19.087965	
4.58065	 19.042969	
4.65222	 19.027710	
4.72379	 19.058228	
4.79536	 19.073486	
4.86694	 19.012451	
4.93851	 18.987925	
5.01008	 19.086653	
5.08165	 19.098429	
5.15323	 19.052860	
5.2248	 19.032869	
5.29637	 19.047920	
5.36794	 19.073486	
5.43952	 19.053692	
5.51109	 19.042969	
5.58266	 19.092865	
5.65423	 19.096182	
5.72581	 19.012451	
5.79738	 18.917402	
5.86895	 19.094141	
5.94052	 18.981934	
6.0121	 18.887510	
6.08367	 18.890381	
6.15524	 18.844604	
6.22681	 18.846851	
6.29839	 18.798828	
6.36996	 18.859863	
6.44153	 18.917652	
6.5131	 18.893211	
6.58468	 18.995985	
6.65625	 18.981934	
6.72782	 19.059019	
6.7994	 19.072903	
6.87097	 18.982309	
6.94254	 19.027710	
7.01411	 19.027710	
7.08569	 19.072739	
7.15726	 18.876493	
7.22883	 18.935492	
7.3004	 18.919151	
7.37198	 18.829346	
7.44355	 18.875122	
7.51512	 18.843107	
7.58669	 18.871712	
7.65827	 18.861776	
7.72984	 18.796707	
7.80141	 18.844604	
7.87298	 18.844604	
7.94456	 18.847349	
8.01613	 18.783569	
8.0877	 18.801441	
8.15927	 18.887011	
8.23085	 18.890381	
8.30242	 18.856077	
8.37399	 18.837332	
8.44556	 19.008249	
8.51714	 18.977524	
8.58871	 18.901022	
8.66028	 18.905640	
8.73185	 18.951416	
8.80343	 18.875122	
8.875	 18.773760	
8.94657	 18.833290	
9.01815	 18.848131	
9.08972	 18.832457	
9.16129	 18.823065	
9.23286	 18.805317	
9.30444	 18.846468	
9.37601	 18.819546	
9.44758	 18.783569	
9.51915	 18.829346	
9.59073	 18.859863	
9.6623	 18.882643	
9.73387	 18.837292	
9.80544	 18.859863	
9.87702	 19.026245	
9.94859	 19.042969	
10.0202	 18.899158	
10.0917	 18.933445	
10.1633	 18.951416	
10.2349	 18.857552	
10.3065	 18.783569	
10.378	 18.839163	
10.4496	 18.814087	
10.5212	 18.829346	
10.5927	 18.814087	
10.6643	 18.818695	
10.7359	 18.844604	
10.8075	 18.836220	
10.879	 18.810102	
10.9506	 18.787346	
11.0222	 18.859863	
11.0937	 18.837883	
11.1653	 18.783569	
11.2369	 18.890381	
11.3085	 18.887644	
11.38	 18.931101	
11.4516	 19.010130	
11.5232	 18.979820	
11.5948	 19.056324	
